<svg xmlns="http://www.w3.org/2000/svg" style="display:none;">
  <!-- Pause Icon -->
  <symbol id="icon-pause" viewBox="0 0 24 24" aria-hidden="true">
    <g fill="currentColor">
      <path fill-rule="evenodd" d="M12 3.5a8.5 8.5 0 1 0 0 17 8.5 8.5 0 0 0 0-17M2 12C2 6.477 6.477 2 12 2s10 4.477 10 10-4.477 10-10 10S2 17.523 2 12" clip-rule="evenodd"/>
      <path d="M9.5 10.5a1 1 0 0 1 1-1h3a1 1 0 0 1 1 1v3a1 1 0 0 1-1 1h-3a1 1 0 0 1-1-1z"/>
    </g>
  </symbol>
  
  <!-- Play Icon -->
  <symbol id="icon-play" viewBox="0 0 24 24" aria-hidden="true">
    <g fill="currentColor">
      <path fill-rule="evenodd" d="M12.25 3.75a8.5 8.5 0 1 0 0 17 8.5 8.5 0 0 0 0-17m-10 8.5c0-5.523 4.477-10 10-10s10 4.477 10 10-4.477 10-10 10-10-4.477-10-10" clip-rule="evenodd"/>
      <path d="M10.25 15.054V9.446a.5.5 0 0 1 .782-.413l4.112 2.804a.5.5 0 0 1 0 .826l-4.112 2.804a.5.5 0 0 1-.782-.413"/>
    </g>
  </symbol>
  
  <!-- Speed Icon -->
  <symbol id="icon-speed" viewBox="0 0 24 24" aria-hidden="true">
    <g fill="none" stroke="currentColor" stroke-width="1.5" stroke-linecap="round" stroke-linejoin="round">
      <path d="M12 7.75V12l2.75 2.75"/>
      <path d="M21.25 12a9.25 9.25 0 1 1-18.5 0 9.25 9.25 0 0 1 18.5 0"/>
    </g>
  </symbol>
</svg>