<svg xmlns="http://www.w3.org/2000/svg" style="display:none;">
    <!-- Play Icon -->
    <symbol id="icon-play" viewBox="0 0 24 24">
        <path fill="currentColor" fill-rule="evenodd" d="M12.25 3.75a8.5 8.5 0 1 0 0 17 8.5 8.5 0 0 0 0-17m-10 8.5c0-5.523 4.477-10 10-10s10 4.477 10 10-4.477 10-10 10-10-4.477-10-10" clip-rule="evenodd"></path>
        <path fill="currentColor" d="M10.25 15.054V9.446a.5.5 0 0 1 .782-.413l4.112 2.804a.5.5 0 0 1 0 .826l-4.112 2.804a.5.5 0 0 1-.782-.413"></path>
    </symbol>

    <!-- Pause Icon -->
    <symbol id="icon-pause" viewBox="0 0 24 24">
        <path stroke="currentColor" stroke-linecap="round" stroke-linejoin="round" d="M14.25 9v6m-4.5 0V9M21 12a9 9 0 1 1-18 0 9 9 0 0 1 18 0Z" />
    </symbol>

</svg>
